<?xml version="1.0" encoding="utf-8"?>
<!-- Generator: Adobe Illustrator 21.1.0, SVG Export Plug-In . SVG Version: 6.00 Build 0)  -->
<svg version="1.1" id="Layer_1" xmlns="http://www.w3.org/2000/svg" xmlns:xlink="http://www.w3.org/1999/xlink" x="0px" y="0px"
	 viewBox="0 0 66 61.5" style="enable-background:new 0 0 66 61.5;" xml:space="preserve">
<style type="text/css">
	.st0{opacity:0.85;fill:#F9F9F9;enable-background:new    ;}
</style>
<g>
	<path class="st0" d="M34.8,3.4c-0.1,1-0.9,1.8-1.9,1.7c-1-0.1-1.8-0.9-1.7-1.9c0.1-1,0.9-1.8,1.9-1.7C34.1,1.6,34.8,2.4,34.8,3.4
		L34.8,3.4z M58.6,19c-0.9,0.4-2,0.1-2.5-0.8c-0.4-0.9-0.1-2,0.8-2.4c0,0,0,0,0,0c0.9-0.4,2-0.1,2.5,0.8
		C59.9,17.4,59.5,18.5,58.6,19z M56.9,47.1c-0.8-0.5-1.1-1.6-0.5-2.5c0,0,0,0,0,0c0.6-0.8,1.7-1.1,2.5-0.5c0.8,0.5,1.1,1.7,0.5,2.5
		C58.8,47.4,57.7,47.6,56.9,47.1L56.9,47.1z M31.1,59.6c0.1-1,0.9-1.8,1.9-1.7c1,0.1,1.8,0.9,1.7,1.9c-0.1,1-0.9,1.8-1.9,1.7
		C31.8,61.5,31,60.6,31.1,59.6L31.1,59.6z M7.4,44.1c0.9-0.4,2-0.1,2.5,0.8c0.5,0.9,0.1,2-0.8,2.4c-0.9,0.4-2,0.1-2.5-0.8
		C6.1,45.6,6.5,44.5,7.4,44.1C7.4,44.1,7.4,44.1,7.4,44.1L7.4,44.1z M9.2,16c0.8,0.5,1.1,1.6,0.5,2.5c0,0,0,0,0,0
		C9.1,19.3,8,19.5,7.1,19c-0.8-0.5-1.1-1.6-0.5-2.5c0,0,0,0,0,0C7.2,15.6,8.3,15.4,9.2,16L9.2,16z M35.6,14
		c-0.1,1.4-1.3,2.5-2.8,2.4c-1.4-0.1-2.5-1.3-2.5-2.7c0.1-1.4,1.3-2.5,2.8-2.4C34.6,11.4,35.7,12.6,35.6,14z M49.7,24.9
		c-1.3,0.6-2.9,0.1-3.5-1.1c-0.6-1.3-0.1-2.8,1.1-3.4c0,0,0,0,0,0c1.3-0.6,2.9-0.1,3.5,1.1C51.5,22.7,51,24.3,49.7,24.9
		C49.7,24.9,49.7,24.9,49.7,24.9L49.7,24.9z M47.1,42.5c-1.2-0.8-1.5-2.3-0.8-3.5c0,0,0,0,0,0c0.8-1.2,2.4-1.5,3.6-0.7
		c1.2,0.8,1.5,2.3,0.8,3.5c0,0,0,0,0,0C50,42.9,48.4,43.2,47.1,42.5z M30.3,49c0.1-1.4,1.3-2.5,2.8-2.4c1.4,0.1,2.5,1.3,2.5,2.7
		c-0.1,1.4-1.3,2.5-2.8,2.4C31.3,51.6,30.2,50.4,30.3,49L30.3,49z M16.3,38.1c1.3-0.6,2.9-0.1,3.5,1.1c0.6,1.3,0.1,2.8-1.1,3.4
		c0,0,0,0,0,0c-1.3,0.6-2.9,0.1-3.5-1.1C14.5,40.3,15,38.7,16.3,38.1C16.3,38.1,16.3,38.1,16.3,38.1z M18.9,20.6
		c1.2,0.8,1.5,2.3,0.8,3.5c0,0,0,0,0,0c-0.8,1.2-2.4,1.5-3.6,0.7c-1.2-0.8-1.5-2.3-0.8-3.5c0,0,0,0,0,0
		C16.1,20.1,17.7,19.8,18.9,20.6z M49.9,5.4c-0.4,0.7-1.3,0.8-2,0.4c-0.7-0.4-0.8-1.3-0.4-1.9c0,0,0,0,0,0c0.4-0.7,1.3-0.8,2-0.4
		C50.2,3.8,50.4,4.7,49.9,5.4C50,5.3,50,5.3,49.9,5.4L49.9,5.4z M64.5,32.9c-0.8,0-1.4-0.7-1.4-1.5c0,0,0,0,0,0
		c0.1-0.8,0.7-1.4,1.5-1.3c0.8,0,1.4,0.7,1.4,1.5c0,0,0,0,0,0C66,32.3,65.3,32.9,64.5,32.9L64.5,32.9z M47.6,59
		c-0.4-0.7-0.1-1.5,0.6-1.9c0,0,0,0,0,0c0.7-0.4,1.6-0.1,1.9,0.6c0.4,0.7,0.1,1.5-0.6,1.9c0,0,0,0,0,0C48.8,60,47.9,59.7,47.6,59z
		 M16.1,57.7c0.4-0.7,1.3-0.8,2-0.4c0.7,0.4,0.8,1.3,0.4,2c-0.4,0.7-1.3,0.8-2,0.4C15.8,59.2,15.7,58.3,16.1,57.7
		C16.1,57.7,16.1,57.7,16.1,57.7z M1.5,30.2c0.8,0,1.4,0.7,1.4,1.5c0,0,0,0,0,0c0,0.8-0.7,1.4-1.5,1.3C0.6,33,0,32.3,0,31.5
		c0,0,0,0,0,0C0.1,30.7,0.7,30.1,1.5,30.2z M18.4,4c0.4,0.7,0.1,1.5-0.6,1.9c-0.7,0.4-1.6,0.1-1.9-0.6c-0.4-0.7-0.1-1.5,0.6-1.9
		c0,0,0,0,0,0C17.2,3,18.1,3.3,18.4,4L18.4,4z M46.5,12.8c-0.7,1-2,1.3-3.1,0.6c-1-0.6-1.3-2-0.7-3c0,0,0,0,0,0
		c0.7-1,2.1-1.3,3.1-0.6C46.8,10.5,47.1,11.8,46.5,12.8C46.5,12.8,46.5,12.8,46.5,12.8L46.5,12.8z M56.2,33.6
		c-1.2-0.1-2.2-1.1-2.1-2.3c0.1-1.2,1.1-2.1,2.3-2.1c1.2,0.1,2.2,1.1,2.1,2.3C58.5,32.8,57.4,33.7,56.2,33.6z M42.7,52.3
		c-0.5-1.1-0.1-2.4,0.9-2.9c0,0,0,0,0,0c1.1-0.5,2.4-0.1,3,1c0.5,1.1,0.1,2.4-0.9,2.9c0,0,0,0,0,0C44.6,53.8,43.3,53.4,42.7,52.3z
		 M19.6,50.2c0.7-1,2-1.3,3.1-0.6c1,0.6,1.3,2,0.7,3c0,0,0,0,0,0c-0.7,1-2.1,1.3-3.1,0.6C19.2,52.6,18.9,51.2,19.6,50.2
		C19.5,50.2,19.5,50.2,19.6,50.2L19.6,50.2z M9.8,29.4c1.2,0.1,2.2,1.1,2.1,2.3c-0.1,1.2-1.1,2.1-2.3,2.1c-1.2-0.1-2.2-1.1-2.1-2.3
		C7.6,30.2,8.6,29.3,9.8,29.4z M23.3,10.7c0.5,1.1,0.1,2.4-0.9,2.9c0,0,0,0,0,0c-1.1,0.5-2.4,0.1-3-1c-0.5-1.1-0.1-2.4,0.9-2.9
		c0,0,0,0,0,0C21.4,9.2,22.8,9.6,23.3,10.7L23.3,10.7z M38.2,26.9c-0.9,0-1.7-0.2-2.4-0.7c-2-1.3-2.6-4-1.3-6.1c0.8-1.2,2.2-2,3.7-2
		c0.9,0,1.7,0.2,2.4,0.7c2,1.3,2.6,4,1.3,6.1C41.1,26.2,39.7,27,38.2,26.9z M43.5,35.9c-0.1,0-0.2,0-0.3,0c-2.4-0.1-4.3-2.2-4.2-4.6
		c0.1-2.4,2.2-4.3,4.7-4.1c1.2,0.1,2.3,0.6,3.1,1.5c0.8,0.9,1.2,2,1.1,3.2C47.8,34,45.8,35.9,43.5,35.9z M38.3,44.8
		c-1.7,0-3.2-0.9-4-2.4c-0.5-1-0.6-2.2-0.3-3.3c0.4-1.1,1.2-2,2.2-2.5c0.6-0.3,1.3-0.5,2-0.5c1.7,0,3.2,0.9,4,2.4
		c1.1,2.2,0.2,4.8-2,5.9C39.7,44.6,39,44.8,38.3,44.8z M27.8,44.8c-0.9,0-1.7-0.2-2.4-0.7c-1-0.6-1.7-1.6-1.9-2.8
		c-0.2-1.1,0-2.3,0.6-3.3c0.8-1.2,2.2-2,3.7-2c0.9,0,1.7,0.2,2.4,0.7c1,0.6,1.7,1.6,1.9,2.8c0.2,1.1,0,2.3-0.6,3.3
		C30.7,44.1,29.3,44.8,27.8,44.8z M22.5,35.9c-0.1,0-0.2,0-0.3,0c-2.4-0.1-4.3-2.2-4.2-4.6c0.1-2.4,2.2-4.3,4.7-4.1
		c2.4,0.1,4.3,2.2,4.2,4.6C26.8,34.1,24.9,35.9,22.5,35.9z M27.8,27c-1.7,0-3.2-0.9-4-2.4c-1.1-2.2-0.2-4.8,2-5.9
		c0.6-0.3,1.3-0.5,2-0.5c1.7,0,3.2,0.9,4,2.4c1.1,2.2,0.2,4.8-2,5.9C29.1,26.8,28.4,27,27.8,27z M342.1,0c1.1,0,2.2,0.2,3.3,0.6
		c1,0.4,2,1,2.7,1.8l-1.6,1.9c-0.6-0.6-1.3-1.1-2-1.4c-0.7-0.3-1.6-0.5-2.4-0.5c-1.6,0-2.9,0.5-4,1.6c-1.1,1.1-1.6,2.4-1.6,3.9
		c0,1.5,0.5,2.8,1.6,3.9c1.1,1.1,2.4,1.6,4,1.6c1.6,0,3.1-0.6,4.4-1.8l1.6,1.7c-0.8,0.8-1.8,1.4-2.8,1.9c-1.1,0.5-2.2,0.7-3.3,0.7
		c-2.3,0-4.3-0.8-5.8-2.3c-1.6-1.5-2.4-3.4-2.4-5.6c0-2.2,0.8-4.1,2.4-5.6C337.8,0.8,339.8,0,342.1,0z M362.4,12.1h-8l-1.5,3.5h-2.8
		l7-15.6h2.7l6.9,15.6H364L362.4,12.1z M361.4,9.8l-3-6.9l-3,6.9H361.4L361.4,9.8z M380.4,15.6l-2.9-4.7c-0.2,0-0.4,0-0.7,0h-3.7
		v4.7h-2.7V0.1h6.4c2,0,3.6,0.5,4.7,1.4c1.1,0.9,1.7,2.2,1.7,3.9c0,1.2-0.3,2.3-0.8,3.2c-0.6,0.9-1.4,1.5-2.4,1.9l3.5,5.2
		L380.4,15.6L380.4,15.6z M373.1,8.6h3.7c2.6,0,3.8-1,3.8-3.1c0-2-1.3-3-3.8-3h-3.7C373.1,2.4,373.1,8.6,373.1,8.6z M388.2,0.1h6.5
		c2.4,0,4.3,0.7,5.9,2.2c1.5,1.5,2.3,3.3,2.3,5.6s-0.8,4.1-2.3,5.6c-1.5,1.5-3.5,2.2-5.9,2.2h-6.4V0.1z M390.9,2.4v10.9h3.9
		c1.6,0,2.8-0.5,3.9-1.5s1.5-2.3,1.5-3.9S399.7,5,398.6,4c-1.1-1-2.4-1.5-3.9-1.5L390.9,2.4L390.9,2.4z M417,12.1h-8l-1.5,3.5h-2.8
		l7-15.6h2.7l6.9,15.6h-2.8L417,12.1z M416,9.8l-3-6.9l-3,6.9H416z M438.7,15.6h-2.6l-8.4-11.2v11.2H425V0.1h2.6l8.5,11.2V0.1h2.6
		V15.6L438.7,15.6z M451.5,0c2.4,0,4.4,0.8,6,2.3s2.4,3.4,2.4,5.6c0,2.2-0.8,4.1-2.4,5.6c-1.6,1.5-3.6,2.3-6,2.3
		c-2.4,0-4.4-0.8-6-2.3s-2.4-3.4-2.4-5.6c0-2.2,0.8-4.1,2.4-5.6C447.1,0.8,449.1,0,451.5,0z M451.5,2.4c-1.6,0-2.9,0.5-4,1.6
		c-1.1,1.1-1.7,2.4-1.7,3.9c0,1.5,0.6,2.8,1.7,3.9c1.1,1.1,2.5,1.6,4,1.6c1.5,0,2.9-0.5,4-1.6s1.6-2.4,1.6-3.9
		c0-1.5-0.5-2.8-1.6-3.9C454.4,2.9,453,2.4,451.5,2.4L451.5,2.4z"/>
</g>
</svg>
