<svg xmlns="http://www.w3.org/2000/svg" enable-background="new 0 0 1000 1000" viewBox="0 0 1000 1000">
    <path d="M522.7 523.9c-1-.3-2.1.3-2.3 1.3-11 40.2-47.9 68.2-89.6 68.2-51.2 0-92.9-41.7-92.9-92.9 0-32 16.2-61.4 43.2-78.5.9-.6 1.2-1.7.6-2.6-.6-.9-1.7-1.2-2.6-.6-28.2 17.9-45 48.4-45 81.8 0 53.3 43.4 96.7 96.7 96.7 43.4 0 81.8-29.2 93.3-71 .2-1-.4-2.1-1.4-2.4"/>
    <path d="M366.6 420.4c1 .1 2-.6 2.2-1.6.9-6.3 6.5-11.1 12.9-11.1 7.2 0 13 5.8 13 13s-5.8 13-13 13c-1.6 0-3.1-.3-4.6-.8-1-.4-2.1.1-2.5 1.1-.4 1 .1 2.1 1.1 2.5 1.9.7 3.9 1.1 5.9 1.1 9.3 0 16.8-7.5 16.8-16.8 0-2.4-.5-4.6-1.4-6.7 10.7-4.2 22.1-6.3 33.7-6.3 41.7 0 78.5 28.1 89.6 68.2.2.8 1 1.4 1.8 1.4.2 0 .3 0 .5-.1 1-.3 1.6-1.3 1.3-2.3-11.5-41.8-49.8-71-93.3-71-12.3 0-24.3 2.3-35.7 6.8-3.1-4.1-8-6.8-13.5-6.8-8.3 0-15.4 6.2-16.6 14.3 0 1 .8 1.9 1.8 2.1M472.4 511.4c1.6 0 3-.3 4.1-.9 1.1-.6 1.9-1.4 2.6-2.4.6-1 1.1-2.2 1.4-3.5.3-1.3.4-2.6.4-3.9v-13.1h2.6v13.1c0 1.8-.2 3.4-.6 5-.4 1.6-1 3-1.9 4.1-.9 1.2-2 2.1-3.4 2.8-1.4.7-3.1 1.1-5.1 1.1-2 0-3.8-.4-5.2-1.1-1.4-.7-2.5-1.7-3.4-2.9-.9-1.2-1.5-2.6-1.8-4.2-.4-1.6-.5-3.2-.5-4.8v-13.1h2.5v13.1c0 1.4.1 2.7.4 4 .3 1.3.7 2.4 1.4 3.4.6 1 1.5 1.8 2.6 2.4 1 .6 2.3.9 3.9.9M489.5 513.5v-25.9h11c1.1 0 2.1.2 3.1.7.9.5 1.7 1.1 2.4 1.9.7.8 1.2 1.6 1.6 2.6.4 1 .6 2 .6 3s-.1 1.9-.4 2.7c-.3.9-.7 1.6-1.2 2.3-.5.7-1.1 1.3-1.8 1.8s-1.5.8-2.4 1l6.4 10h-2.9l-6.1-9.6H492v9.6h-2.5zm2.5-11.8h8.5c.8 0 1.4-.2 2.1-.5.6-.3 1.2-.8 1.6-1.3.4-.6.8-1.2 1-1.9.2-.7.4-1.4.4-2.2s-.1-1.5-.4-2.2c-.3-.7-.7-1.3-1.1-1.9-.5-.5-1-1-1.7-1.3-.6-.3-1.3-.5-2-.5H492v11.8zM562.2 506.9c0 1-.2 1.9-.6 2.7-.4.8-.9 1.5-1.6 2.1-.7.6-1.4 1.1-2.3 1.4-.9.3-1.8.5-2.8.5h-12.2v-25.9h12.5c.9 0 1.7.2 2.4.6.7.4 1.4.9 1.9 1.5s.9 1.3 1.2 2.1c.3.8.4 1.6.4 2.4 0 1.3-.3 2.5-1 3.6s-1.6 1.9-2.7 2.4c1.5.4 2.7 1.3 3.5 2.4.8 1.2 1.3 2.6 1.3 4.2m-17-17.1v9.6h8.9c.6 0 1.2-.1 1.8-.4.5-.3 1-.6 1.4-1.1.4-.4.7-.9.9-1.5.2-.6.3-1.2.3-1.8 0-.7-.1-1.3-.3-1.9-.2-.6-.5-1.1-.9-1.5-.4-.4-.8-.8-1.3-1-.5-.3-1.1-.4-1.7-.4h-9.1zm14.4 16.6c0-.6-.1-1.2-.3-1.8-.2-.6-.5-1.1-.9-1.6s-.9-.8-1.4-1.1c-.5-.3-1.1-.4-1.8-.4h-9.9v9.8h9.7c.7 0 1.3-.1 1.8-.4.6-.3 1.1-.6 1.5-1.1.4-.5.8-1 1-1.6.2-.5.3-1.1.3-1.8M596.4 513.5v-25.9h11c1.1 0 2.1.2 3.1.7.9.5 1.7 1.1 2.4 1.9.7.8 1.2 1.6 1.6 2.6.4 1 .6 2 .6 3s-.1 1.9-.4 2.7c-.3.9-.7 1.6-1.2 2.3-.5.7-1.1 1.3-1.8 1.8s-1.5.8-2.4 1l6.4 10h-2.9l-6.1-9.6H599v9.6h-2.6zm2.5-11.8h8.5c.8 0 1.4-.2 2.1-.5.6-.3 1.2-.8 1.6-1.3.4-.6.8-1.2 1-1.9.2-.7.4-1.4.4-2.2s-.1-1.5-.4-2.2c-.3-.7-.7-1.3-1.1-1.9-.5-.5-1-1-1.7-1.3-.6-.3-1.3-.5-2-.5H599v11.8zM663.9 492.5c-.7-.8-1.7-1.5-2.9-2s-2.6-.8-4.2-.8c-2.3 0-4 .4-5 1.3s-1.6 2-1.6 3.5c0 .8.1 1.4.4 1.9.3.5.7.9 1.3 1.3.6.4 1.3.7 2.2 1 .9.3 2 .5 3.2.8 1.4.3 2.6.6 3.7 1s2.1.8 2.8 1.4c.8.5 1.4 1.2 1.8 2 .4.8.6 1.8.6 2.9 0 1.2-.2 2.2-.7 3.1-.5.9-1.1 1.6-1.9 2.2-.8.6-1.8 1-3 1.3-1.1.3-2.4.4-3.8.4-4 0-7.5-1.3-10.4-3.8l1.3-2.1c.5.5 1 1 1.7 1.4.6.4 1.4.8 2.2 1.1.8.3 1.6.6 2.5.8.9.2 1.8.3 2.8.3 2.1 0 3.7-.4 4.8-1.1 1.2-.7 1.7-1.9 1.7-3.4 0-.8-.2-1.5-.5-2s-.8-1-1.5-1.4c-.7-.4-1.5-.8-2.4-1-1-.3-2.1-.6-3.4-.9-1.4-.3-2.6-.6-3.6-1-1-.3-1.9-.8-2.6-1.3-.7-.5-1.2-1.1-1.6-1.8-.4-.7-.5-1.6-.5-2.6 0-1.2.2-2.3.7-3.2.5-.9 1.1-1.7 1.9-2.3.8-.6 1.8-1.1 2.9-1.4 1.1-.3 2.4-.5 3.7-.5 1.7 0 3.3.3 4.6.8 1.4.5 2.6 1.3 3.7 2.2l-.9 1.9zM443.9 487.4c-7.3 0-13.1 5.9-13.1 13.1s5.9 13.1 13.1 13.1c7.3 0 13.1-5.9 13.1-13.1s-5.8-13.1-13.1-13.1m0 24.1c-6 0-10.9-4.9-10.9-10.9s4.9-10.9 10.9-10.9 10.9 4.9 10.9 10.9-4.8 10.9-10.9 10.9M524.7 487.4c-7.3 0-13.1 5.9-13.1 13.1s5.9 13.1 13.1 13.1c7.3 0 13.1-5.9 13.1-13.1s-5.8-13.1-13.1-13.1m0 24.1c-6 0-10.9-4.9-10.9-10.9s4.9-10.9 10.9-10.9 10.9 4.9 10.9 10.9-4.9 10.9-10.9 10.9M578.4 487.4c-7.3 0-13.1 5.9-13.1 13.1s5.9 13.1 13.1 13.1c7.3 0 13.1-5.9 13.1-13.1s-5.8-13.1-13.1-13.1m0 24.1c-6 0-10.9-4.9-10.9-10.9s4.9-10.9 10.9-10.9 10.9 4.9 10.9 10.9-4.8 10.9-10.9 10.9M631.6 487.4c-7.3 0-13.1 5.9-13.1 13.1s5.9 13.1 13.1 13.1c7.3 0 13.1-5.9 13.1-13.1s-5.8-13.1-13.1-13.1m0 24.1c-6 0-10.9-4.9-10.9-10.9s4.9-10.9 10.9-10.9 10.9 4.9 10.9 10.9-4.8 10.9-10.9 10.9"/>
    <path d="M440.3 491.1c0 2-1.6 3.6-3.6 3.6s-3.6-1.6-3.6-3.6 1.6-3.6 3.6-3.6 3.6 1.6 3.6 3.6"/>
</svg>
