<?xml version="1.0" encoding="utf-8"?>
<!-- Generator: Adobe Illustrator 19.0.0, SVG Export Plug-In . SVG Version: 6.00 Build 0)  -->
<svg version="1.1" id="Vrstva_1" xmlns="http://www.w3.org/2000/svg" xmlns:xlink="http://www.w3.org/1999/xlink" x="0px" y="0px"
	 width="342px" height="201.9px" viewBox="202 -80.1 342 201.9" style="enable-background:new 202 -80.1 342 201.9;"
	 xml:space="preserve">
<style type="text/css">
	.st0{fill:#FFFFFF;}
</style>
<g>
	<path class="st0" d="M391.8,47c-1-0.3-2.1,0.3-2.3,1.3c-11,40.2-47.9,68.2-89.6,68.2c-51.2,0-92.9-41.7-92.9-92.9
		c0-32,16.2-61.4,43.2-78.5c0.9-0.6,1.2-1.7,0.6-2.6s-1.7-1.2-2.6-0.6c-28.2,17.9-45,48.4-45,81.8c0,53.3,43.4,96.7,96.7,96.7
		c43.4,0,81.8-29.2,93.3-71C393.4,48.4,392.8,47.3,391.8,47"/>
	<path class="st0" d="M235.7-56.5c1,0.1,2-0.6,2.2-1.6c0.9-6.3,6.5-11.1,12.9-11.1c7.2,0,13,5.8,13,13s-5.8,13-13,13
		c-1.6,0-3.1-0.3-4.6-0.8c-1-0.4-2.1,0.1-2.5,1.1s0.1,2.1,1.1,2.5c1.9,0.7,3.9,1.1,5.9,1.1c9.3,0,16.8-7.5,16.8-16.8
		c0-2.4-0.5-4.6-1.4-6.7c10.7-4.2,22.1-6.3,33.7-6.3c41.7,0,78.5,28.1,89.6,68.2c0.2,0.8,1,1.4,1.8,1.4c0.2,0,0.3,0,0.5-0.1
		c1-0.3,1.6-1.3,1.3-2.3c-11.5-41.8-49.8-71-93.3-71c-12.3,0-24.3,2.3-35.7,6.8c-3.1-4.1-8-6.8-13.5-6.8c-8.3,0-15.4,6.2-16.6,14.3
		C233.9-57.6,234.7-56.7,235.7-56.5 M341.5,34.5c1.6,0,3-0.3,4.1-0.9s1.9-1.4,2.6-2.4c0.6-1,1.1-2.2,1.4-3.5s0.4-2.6,0.4-3.9V10.7
		h2.6v13.1c0,1.8-0.2,3.4-0.6,5s-1,3-1.9,4.1c-0.9,1.2-2,2.1-3.4,2.8s-3.1,1.1-5.1,1.1s-3.8-0.4-5.2-1.1c-1.4-0.7-2.5-1.7-3.4-2.9
		c-0.9-1.2-1.5-2.6-1.8-4.2c-0.4-1.6-0.5-3.2-0.5-4.8V10.7h2.5v13.1c0,1.4,0.1,2.7,0.4,4s0.7,2.4,1.4,3.4c0.6,1,1.5,1.8,2.6,2.4
		C338.6,34.2,339.9,34.5,341.5,34.5 M358.6,36.6V10.7h11c1.1,0,2.1,0.2,3.1,0.7c0.9,0.5,1.7,1.1,2.4,1.9c0.7,0.8,1.2,1.6,1.6,2.6
		s0.6,2,0.6,3s-0.1,1.9-0.4,2.7c-0.3,0.9-0.7,1.6-1.2,2.3c-0.5,0.7-1.1,1.3-1.8,1.8s-1.5,0.8-2.4,1l6.4,10H375l-6.1-9.6h-7.8v9.6
		L358.6,36.6L358.6,36.6z M361.1,24.8h8.5c0.8,0,1.4-0.2,2.1-0.5c0.6-0.3,1.2-0.8,1.6-1.3c0.4-0.6,0.8-1.2,1-1.9
		c0.2-0.7,0.4-1.4,0.4-2.2s-0.1-1.5-0.4-2.2s-0.7-1.3-1.1-1.9c-0.5-0.5-1-1-1.7-1.3c-0.6-0.3-1.3-0.5-2-0.5h-8.4V24.8z M431.3,30
		c0,1-0.2,1.9-0.6,2.7c-0.4,0.8-0.9,1.5-1.6,2.1c-0.7,0.6-1.4,1.1-2.3,1.4c-0.9,0.3-1.8,0.5-2.8,0.5h-12.2V10.8h12.5
		c0.9,0,1.7,0.2,2.4,0.6s1.4,0.9,1.9,1.5s0.9,1.3,1.2,2.1c0.3,0.8,0.4,1.6,0.4,2.4c0,1.3-0.3,2.5-1,3.6s-1.6,1.9-2.7,2.4
		c1.5,0.4,2.7,1.3,3.5,2.4C430.8,27,431.3,28.4,431.3,30 M414.3,12.9v9.6h8.9c0.6,0,1.2-0.1,1.8-0.4c0.5-0.3,1-0.6,1.4-1.1
		c0.4-0.4,0.7-0.9,0.9-1.5s0.3-1.2,0.3-1.8c0-0.7-0.1-1.3-0.3-1.9s-0.5-1.1-0.9-1.5s-0.8-0.8-1.3-1c-0.5-0.3-1.1-0.4-1.7-0.4
		L414.3,12.9L414.3,12.9z M428.7,29.5c0-0.6-0.1-1.2-0.3-1.8c-0.2-0.6-0.5-1.1-0.9-1.6s-0.9-0.8-1.4-1.1c-0.5-0.3-1.1-0.4-1.8-0.4
		h-9.9v9.8h9.7c0.7,0,1.3-0.1,1.8-0.4c0.6-0.3,1.1-0.6,1.5-1.1s0.8-1,1-1.6C428.6,30.8,428.7,30.2,428.7,29.5 M465.5,36.6V10.7h11
		c1.1,0,2.1,0.2,3.1,0.7c0.9,0.5,1.7,1.1,2.4,1.9s1.2,1.6,1.6,2.6c0.4,1,0.6,2,0.6,3s-0.1,1.9-0.4,2.7c-0.3,0.9-0.7,1.6-1.2,2.3
		c-0.5,0.7-1.1,1.3-1.8,1.8s-1.5,0.8-2.4,1l6.4,10h-2.9l-6.1-9.6h-7.7v9.6L465.5,36.6L465.5,36.6z M468,24.8h8.5
		c0.8,0,1.4-0.2,2.1-0.5c0.6-0.3,1.2-0.8,1.6-1.3c0.4-0.6,0.8-1.2,1-1.9c0.2-0.7,0.4-1.4,0.4-2.2s-0.1-1.5-0.4-2.2
		c-0.3-0.7-0.7-1.3-1.1-1.9c-0.5-0.5-1-1-1.7-1.3c-0.6-0.3-1.3-0.5-2-0.5h-8.3L468,24.8L468,24.8z M533,15.6c-0.7-0.8-1.7-1.5-2.9-2
		s-2.6-0.8-4.2-0.8c-2.3,0-4,0.4-5,1.3s-1.6,2-1.6,3.5c0,0.8,0.1,1.4,0.4,1.9c0.3,0.5,0.7,0.9,1.3,1.3s1.3,0.7,2.2,1s2,0.5,3.2,0.8
		c1.4,0.3,2.6,0.6,3.7,1s2.1,0.8,2.8,1.4c0.8,0.5,1.4,1.2,1.8,2c0.4,0.8,0.6,1.8,0.6,2.9c0,1.2-0.2,2.2-0.7,3.1s-1.1,1.6-1.9,2.2
		c-0.8,0.6-1.8,1-3,1.3c-1.1,0.3-2.4,0.4-3.8,0.4c-4,0-7.5-1.3-10.4-3.8l1.3-2.1c0.5,0.5,1,1,1.7,1.4c0.6,0.4,1.4,0.8,2.2,1.1
		c0.8,0.3,1.6,0.6,2.5,0.8c0.9,0.2,1.8,0.3,2.8,0.3c2.1,0,3.7-0.4,4.8-1.1c1.2-0.7,1.7-1.9,1.7-3.4c0-0.8-0.2-1.5-0.5-2
		s-0.8-1-1.5-1.4s-1.5-0.8-2.4-1c-1-0.3-2.1-0.6-3.4-0.9c-1.4-0.3-2.6-0.6-3.6-1c-1-0.3-1.9-0.8-2.6-1.3c-0.7-0.5-1.2-1.1-1.6-1.8
		c-0.4-0.7-0.5-1.6-0.5-2.6c0-1.2,0.2-2.3,0.7-3.2c0.5-0.9,1.1-1.7,1.9-2.3c0.8-0.6,1.8-1.1,2.9-1.4c1.1-0.3,2.4-0.5,3.7-0.5
		c1.7,0,3.3,0.3,4.6,0.8c1.4,0.5,2.6,1.3,3.7,2.2L533,15.6z M313,10.5c-7.3,0-13.1,5.9-13.1,13.1s5.9,13.1,13.1,13.1
		c7.3,0,13.1-5.9,13.1-13.1S320.3,10.5,313,10.5 M313,34.6c-6,0-10.9-4.9-10.9-10.9S307,12.8,313,12.8s10.9,4.9,10.9,10.9
		S319.1,34.6,313,34.6 M393.8,10.5c-7.3,0-13.1,5.9-13.1,13.1s5.9,13.1,13.1,13.1c7.3,0,13.1-5.9,13.1-13.1S401.1,10.5,393.8,10.5
		 M393.8,34.6c-6,0-10.9-4.9-10.9-10.9s4.9-10.9,10.9-10.9s10.9,4.9,10.9,10.9S399.8,34.6,393.8,34.6 M447.5,10.5
		c-7.3,0-13.1,5.9-13.1,13.1s5.9,13.1,13.1,13.1c7.3,0,13.1-5.9,13.1-13.1S454.8,10.5,447.5,10.5 M447.5,34.6
		c-6,0-10.9-4.9-10.9-10.9s4.9-10.9,10.9-10.9s10.9,4.9,10.9,10.9S453.6,34.6,447.5,34.6 M500.7,10.5c-7.3,0-13.1,5.9-13.1,13.1
		s5.9,13.1,13.1,13.1c7.3,0,13.1-5.9,13.1-13.1S508,10.5,500.7,10.5 M500.7,34.6c-6,0-10.9-4.9-10.9-10.9s4.9-10.9,10.9-10.9
		s10.9,4.9,10.9,10.9S506.8,34.6,500.7,34.6"/>
	<path class="st0" d="M309.4,14.2c0,2-1.6,3.6-3.6,3.6s-3.6-1.6-3.6-3.6s1.6-3.6,3.6-3.6S309.4,12.2,309.4,14.2"/>
</g>
</svg>
